<svg width="17" height="17" viewBox="0 0 17 17" fill="none" xmlns="http://www.w3.org/2000/svg">
<path d="M16.0002 16.0001L12.381 12.3809M12.381 12.3809C13.0001 11.7619 13.4912 11.0269 13.8262 10.2181C14.1612 9.40921 14.3337 8.54228 14.3337 7.66678C14.3337 6.79128 14.1612 5.92435 13.8262 5.11549C13.4912 4.30663 13.0001 3.57168 12.381 2.95261C11.7619 2.33354 11.027 1.84246 10.2181 1.50742C9.40927 1.17238 8.54234 0.999939 7.66684 0.999939C6.79134 0.999939 5.92441 1.17238 5.11555 1.50742C4.30669 1.84246 3.57174 2.33354 2.95267 2.95261C1.7024 4.20289 1 5.89862 1 7.66678C1 9.43493 1.7024 11.1307 2.95267 12.3809C4.20295 13.6312 5.89868 14.3336 7.66684 14.3336C9.43499 14.3336 11.1307 13.6312 12.381 12.3809Z" stroke="#C2C2C2" stroke-width="1.5" stroke-linecap="round" stroke-linejoin="round"/>
</svg>
